control3min_grf.mot
version=1
nRows=15
nColumns 19
inDegrees=yes
endheader
time	1_ground_force_vx	1_ground_force_vy	1_ground_force_vz	1_ground_force_px	1_ground_force_py	1_ground_force_pz	1_ground_torque_x	1_ground_torque_y	1_ground_torque_z	2_ground_force_vx	2_ground_force_vy	2_ground_force_vz	2_ground_force_px	2_ground_force_py	2_ground_force_pz	2_ground_torque_x	2_ground_torque_y	2_ground_torque_z
            3.751500	            1.650774	            5.766265	            0.616766	           -0.233013	            0.005581	           -0.255695	            0.759493	           -0.350241	            0.047980	            0.576157	           -2.792665	            9.093957	           -0.232311	            0.006130	           -0.833667	            0.419475	           -1.755500	           -0.345753
            3.752000	            2.659699	           11.172070	            1.187722	           -0.244640	            0.006211	           -0.402961	           -0.012841	           -0.053937	           -0.005734	            0.431620	           -1.688282	            9.097959	           -0.232311	            0.006130	           -0.833667	            0.363085	           -1.746250	           -0.345695
            3.752500	            3.942831	           18.741904	            1.583848	           -0.250734	            0.006167	           -0.393121	            0.011797	            0.056075	            0.004739	            0.485095	           -3.529429	            9.044440	           -0.232311	            0.006130	           -0.833667	            0.494446	           -1.707965	           -0.345616
            3.753000	            5.271576	           27.573606	            1.985271	           -0.255397	            0.006117	           -0.381532	            0.015346	            0.080271	            0.005779	            0.432970	           -2.056746	            9.143573	           -0.232311	            0.006130	           -0.833667	            0.569945	           -1.802355	           -0.308285
            3.753500	            6.693351	           31.537366	            2.549020	           -0.269350	            0.006120	           -0.382838	            0.029678	            0.139834	            0.011302	            0.531342	           -3.345614	            9.185862	           -0.232311	            0.006130	           -0.833667	            0.438159	           -1.736257	           -0.421094
            3.754000	            7.149792	           33.703395	            1.915175	           -0.265495	            0.006164	           -0.392935	            0.059852	            0.282137	            0.016032	            0.435669	           -2.793674	            9.234801	           -0.232311	            0.006130	           -0.833667	            0.588560	           -1.764207	           -0.383559
            3.754500	            5.956470	           36.408723	            1.562881	           -0.264319	            0.006152	           -0.389986	            0.035213	            0.215240	            0.009239	            0.382776	           -1.136006	            9.099950	           -0.232311	            0.006130	           -0.833667	            0.457080	           -1.764816	           -0.345803
            3.755000	            3.846842	           38.572290	            1.393966	           -0.269093	            0.006104	           -0.379022	            0.004513	            0.045253	            0.001635	            0.384352	           -1.506312	            9.661773	           -0.232311	            0.006130	           -0.833667	            0.475891	           -1.774134	           -0.364694
            3.755500	            1.691354	           41.456714	            1.274114	           -0.272752	            0.006091	           -0.376235	           -0.006952	           -0.170395	           -0.005237	            0.482560	           -2.793840	            9.328637	           -0.232311	            0.006130	           -0.833667	            0.419526	           -1.774270	           -0.383521
            3.756000	            0.773846	           48.125384	            1.534268	           -0.272403	            0.006116	           -0.382154	           -0.002956	           -0.183851	           -0.005861	            0.440342	           -4.082880	            9.277130	           -0.232311	            0.006130	           -0.833667	            0.457139	           -1.783655	           -0.364720
            3.756500	            1.369462	           56.235488	            2.026132	           -0.274605	            0.006118	           -0.382551	           -0.006976	           -0.286452	           -0.010321	            0.669234	           -2.608513	            9.188430	           -0.232311	            0.006130	           -0.833667	            0.419415	           -1.736661	           -0.326835
            3.757000	            3.112750	           63.081595	            3.060011	           -0.277922	            0.006114	           -0.381703	           -0.007631	           -0.154656	           -0.007502	            0.386846	           -2.241566	            9.283720	           -0.232311	            0.006130	           -0.833667	            0.438304	           -1.774135	           -0.402379
            3.757500	            4.992539	           71.190965	            3.777968	           -0.280054	            0.006102	           -0.379042	            0.006146	            0.087641	            0.004651	            0.153138	           -2.425556	            9.001594	           -0.232311	            0.006130	           -0.833667	            0.475770	           -1.727274	           -0.251425
            3.758000	            4.993062	           77.677580	            4.493633	           -0.278650	            0.006112	           -0.381276	            0.011792	            0.183446	            0.010612	            0.152432	           -2.241073	            8.908395	           -0.232311	            0.006130	           -0.833667	            0.513036	           -1.660432	           -0.402006
            3.758500	            3.066424	           83.806437	            4.478837	           -0.276804	            0.006107	           -0.380151	            0.009876	            0.269913	            0.014425	            0.529328	           -2.793001	            9.140905	           -0.232311	            0.006130	           -0.833667	            0.475798	           -1.755027	           -0.421178
